<svg width="24" height="25" viewBox="0 0 24 25" fill="none" xmlns="http://www.w3.org/2000/svg">
<path d="M12 22.4399C17.5228 22.4399 22 17.9628 22 12.4399C22 6.91709 17.5228 2.43994 12 2.43994C6.47715 2.43994 2 6.91709 2 12.4399C2 17.9628 6.47715 22.4399 12 22.4399Z" stroke="#20AB76" stroke-width="2" stroke-linecap="round" stroke-linejoin="round"/>
<path d="M12 18.4399C15.3137 18.4399 18 15.7536 18 12.4399C18 9.12623 15.3137 6.43994 12 6.43994C8.68629 6.43994 6 9.12623 6 12.4399C6 15.7536 8.68629 18.4399 12 18.4399Z" stroke="#20AB76" stroke-width="2" stroke-linecap="round" stroke-linejoin="round"/>
<path d="M12 14.4399C13.1046 14.4399 14 13.5445 14 12.4399C14 11.3354 13.1046 10.4399 12 10.4399C10.8954 10.4399 10 11.3354 10 12.4399C10 13.5445 10.8954 14.4399 12 14.4399Z" stroke="#20AB76" stroke-width="2" stroke-linecap="round" stroke-linejoin="round"/>
</svg>
