<svg width="22" height="23" viewBox="0 0 22 23" fill="none" xmlns="http://www.w3.org/2000/svg">
<path d="M5 5.948H5.01M5 17.948H5.01M4.2 9.948H17.8C18.9201 9.948 19.4802 9.948 19.908 9.73001C20.2843 9.53826 20.5903 9.2323 20.782 8.85598C21 8.42816 21 7.8681 21 6.748V5.148C21 4.02789 21 3.46784 20.782 3.04002C20.5903 2.66369 20.2843 2.35773 19.908 2.16599C19.4802 1.948 18.9201 1.948 17.8 1.948H4.2C3.07989 1.948 2.51984 1.948 2.09202 2.16599C1.71569 2.35773 1.40973 2.66369 1.21799 3.04002C1 3.46784 1 4.02789 1 5.148V6.748C1 7.8681 1 8.42816 1.21799 8.85598C1.40973 9.2323 1.71569 9.53826 2.09202 9.73001C2.51984 9.948 3.0799 9.948 4.2 9.948ZM4.2 21.948H17.8C18.9201 21.948 19.4802 21.948 19.908 21.73C20.2843 21.5383 20.5903 21.2323 20.782 20.856C21 20.4282 21 19.8681 21 18.748V17.148C21 16.0279 21 15.4678 20.782 15.04C20.5903 14.6637 20.2843 14.3577 19.908 14.166C19.4802 13.948 18.9201 13.948 17.8 13.948H4.2C3.07989 13.948 2.51984 13.948 2.09202 14.166C1.71569 14.3577 1.40973 14.6637 1.21799 15.04C1 15.4678 1 16.0279 1 17.148V18.748C1 19.8681 1 20.4282 1.21799 20.856C1.40973 21.2323 1.71569 21.5383 2.09202 21.73C2.51984 21.948 3.0799 21.948 4.2 21.948Z" stroke="#20AB76" stroke-width="2" stroke-linecap="round" stroke-linejoin="round"/>
</svg>
