<svg width="20" height="22" viewBox="0 0 20 22" fill="none" xmlns="http://www.w3.org/2000/svg">
<path d="M18.5 6.34558L9.99997 11.0678M9.99997 11.0678L1.49997 6.34558M9.99997 11.0678L10 20.5678M19 15.1264V7.00928C19 6.66664 19 6.49531 18.9495 6.34252C18.9049 6.20734 18.8318 6.08326 18.7354 5.97857C18.6263 5.86023 18.4766 5.77703 18.177 5.61063L10.777 1.49952C10.4934 1.34196 10.3516 1.26318 10.2015 1.23229C10.0685 1.20496 9.93146 1.20496 9.79855 1.23229C9.64838 1.26318 9.50658 1.34196 9.22297 1.49952L1.82297 5.61063C1.52345 5.77703 1.37369 5.86023 1.26463 5.97857C1.16816 6.08326 1.09515 6.20734 1.05048 6.34252C1 6.49532 1 6.66664 1 7.00928V15.1264C1 15.469 1 15.6404 1.05048 15.7932C1.09515 15.9283 1.16816 16.0524 1.26463 16.1571C1.37369 16.2754 1.52345 16.3586 1.82297 16.525L9.22297 20.6362C9.50658 20.7937 9.64838 20.8725 9.79855 20.9034C9.93146 20.9307 10.0685 20.9307 10.2015 20.9034C10.3516 20.8725 10.4934 20.7937 10.777 20.6362L18.177 16.525C18.4766 16.3586 18.6263 16.2754 18.7354 16.1571C18.8318 16.0524 18.9049 15.9283 18.9495 15.7932C19 15.6404 19 15.469 19 15.1264Z" stroke="#20AB76" stroke-width="2" stroke-linecap="round" stroke-linejoin="round"/>
</svg>
