<svg width="22" height="21" viewBox="0 0 22 21" fill="none" xmlns="http://www.w3.org/2000/svg">
<path d="M18 19.948V13.948M15 16.948H21M11 13.948H7C5.13623 13.948 4.20435 13.948 3.46927 14.2525C2.48915 14.6585 1.71046 15.4372 1.30448 16.4173C1 17.1523 1 18.0842 1 19.948M14.5 2.23876C15.9659 2.83214 17 4.26931 17 5.948C17 7.62669 15.9659 9.06385 14.5 9.65724M12.5 5.948C12.5 8.15714 10.7091 9.948 8.5 9.948C6.29086 9.948 4.5 8.15714 4.5 5.948C4.5 3.73886 6.29086 1.948 8.5 1.948C10.7091 1.948 12.5 3.73886 12.5 5.948Z" stroke="#20AB76" stroke-width="2" stroke-linecap="round" stroke-linejoin="round"/>
</svg>
