<svg width="22" height="23" viewBox="0 0 22 23" fill="none" xmlns="http://www.w3.org/2000/svg">
<path d="M8 1.75391V3.75391M14 1.75391V3.75391M8 19.7539V21.7539M14 19.7539V21.7539M19 8.75391H21M19 13.7539H21M1 8.75391H3M1 13.7539H3M7.8 19.7539H14.2C15.8802 19.7539 16.7202 19.7539 17.362 19.4269C17.9265 19.1393 18.3854 18.6804 18.673 18.1159C19 17.4741 19 16.6341 19 14.9539V8.55391C19 6.87375 19 6.03367 18.673 5.39193C18.3854 4.82745 17.9265 4.36851 17.362 4.08089C16.7202 3.75391 15.8802 3.75391 14.2 3.75391H7.8C6.11984 3.75391 5.27976 3.75391 4.63803 4.08089C4.07354 4.36851 3.6146 4.82745 3.32698 5.39193C3 6.03367 3 6.87375 3 8.55391V14.9539C3 16.6341 3 17.4741 3.32698 18.1159C3.6146 18.6804 4.07354 19.1393 4.63803 19.4269C5.27976 19.7539 6.11984 19.7539 7.8 19.7539ZM9.6 14.7539H12.4C12.9601 14.7539 13.2401 14.7539 13.454 14.6449C13.6422 14.549 13.7951 14.3961 13.891 14.2079C14 13.994 14 13.714 14 13.1539V10.3539C14 9.79385 14 9.51383 13.891 9.29992C13.7951 9.11175 13.6422 8.95877 13.454 8.8629C13.2401 8.75391 12.9601 8.75391 12.4 8.75391H9.6C9.03995 8.75391 8.75992 8.75391 8.54601 8.8629C8.35785 8.95877 8.20487 9.11175 8.10899 9.29992C8 9.51383 8 9.79385 8 10.3539V13.1539C8 13.714 8 13.994 8.10899 14.2079C8.20487 14.3961 8.35785 14.549 8.54601 14.6449C8.75992 14.7539 9.03995 14.7539 9.6 14.7539Z" stroke="#20AB76" stroke-width="2" stroke-linecap="round" stroke-linejoin="round"/>
</svg>
