<svg width="22" height="23" viewBox="0 0 22 23" fill="none" xmlns="http://www.w3.org/2000/svg">
<path d="M8 8.75391H8.01M14 14.7539H14.01M15 7.75391L7 15.7539M8.5 8.75391C8.5 9.03005 8.27614 9.25391 8 9.25391C7.72386 9.25391 7.5 9.03005 7.5 8.75391C7.5 8.47776 7.72386 8.25391 8 8.25391C8.27614 8.25391 8.5 8.47776 8.5 8.75391ZM14.5 14.7539C14.5 15.03 14.2761 15.2539 14 15.2539C13.7239 15.2539 13.5 15.03 13.5 14.7539C13.5 14.4778 13.7239 14.2539 14 14.2539C14.2761 14.2539 14.5 14.4778 14.5 14.7539ZM21 11.7539C21 17.2768 16.5228 21.7539 11 21.7539C5.47715 21.7539 1 17.2768 1 11.7539C1 6.23106 5.47715 1.75391 11 1.75391C16.5228 1.75391 21 6.23106 21 11.7539Z" stroke="#20AB76" stroke-width="2" stroke-linecap="round" stroke-linejoin="round"/>
</svg>
